<svg width="1000" height="61" xmlns="http://www.w3.org/2000/svg">
 <g>
  <title>Trask logo</title>
  <rect fill="none" id="canvas_background" height="61" width="1000" y="-1" x="-1"/>
 </g>
 <g>
  <title>Layer 1</title>
  <g stroke-width="0" id="svg_1" fill-rule="evenodd" fill="white">
   <g id="svg_2" fill="#000000">
    <path id="svg_3" d="m45.946201,13.191c-4.981003,0 -9.700001,2.097 -11.993999,5.636999l-0.131001,0l0,-4.653999l-8.324001,0l0,32.706001l8.979,0l0,-15.468c0,-7.210001 5.374001,-10.749001 11.470001,-10.552l0,-7.669001zm-26.807201,27.134802c-3.014999,0 -4.195,-1.442001 -4.195,-5.047001l0,-14.419001l6.423,0l0,-6.686l-6.423,0l0,-8.52l-9.045,0l0,8.52l-5.309,0l0,6.686l5.309,0l0,16.058001c0,7.405998 3.212,10.682999 10.552999,10.682999c1.769001,0 3.146,-0.195999 4.915001,-0.721001l0,-6.882c-0.524,0.197002 -1.310001,0.328003 -2.228001,0.328003"/>
   </g>
   <g id="svg_4" fill="#008ce9">
    <path id="svg_5" d="m72.032303,46.880001c-0.524002,-2.163002 -0.852005,-4.784 -0.852005,-8.914001l0,-12.125c0,-8.455 -4.980995,-12.978 -20.449997,-12.65l0,7.669001c8.782997,0 11.797997,0.195999 11.797997,5.570999c-7.995998,0.262001 -20.448997,0.721001 -20.448997,11.339001c0,5.702 3.669998,9.896 10.749001,9.896c4.457001,0 8.126999,-1.638 10.618,-5.177002l0.131001,0c0,1.638 0.064999,3.015003 0.392998,4.391003l8.062004,0zm-9.504005,-12.846001c0,4.194 -1.965996,7.209 -6.553997,7.209c-3.670002,0 -4.850002,-1.900002 -4.850002,-4.129002c0,-2.817997 1.114002,-4.783997 11.403999,-5.112l0,2.032001zm23.005898,-11.3393c0,-1.901001 1.573006,-3.080999 4.522003,-3.080999c3.212006,0 5.113007,1.376999 5.113007,4.785l8.651001,0c0,-7.341002 -5.308006,-11.208001 -13.501007,-11.208001c-8.520996,0 -13.830002,4.195001 -13.830002,10.028001c0,7.472 5.964005,8.718 11.404007,10.16c4.850998,1.244999 7.472,1.966 7.472,4.718998c0,2.097 -1.573006,3.277 -4.653,3.277c-3.867004,0 -5.768005,-1.900997 -5.768005,-5.177998l-9.241997,0c0,7.931 5.702995,11.667 14.551003,11.667c9.044998,0 14.615997,-3.868 14.615997,-10.618c0,-7.603001 -6.947006,-9.308001 -12.322006,-10.618c-4.980995,-1.246 -7.013,-1.836 -7.013,-3.933001"/>
    <polygon id="svg_6" points="109.39199829101562,1 109.39199829101562,46.880001068115234 118.37100219726562,46.880001068115234 118.37100219726562,31.47800064086914 118.50299835205078,31.47800064086914 129.4489974975586,46.880001068115234 140.58999633789062,46.880001068115234 126.76100158691406,29.18400001525879 139.27899932861328,14.173999786376953 129.12000274658203,14.173999786376953 118.50299835205078,27.347999572753906 118.37100219726562,27.347999572753906 118.37100219726562,1 "/>
   </g>
  </g>
  <text xml:space="preserve" text-anchor="start" font-family="Arial, sans-serif" font-size="40" id="svg_8" y="42.316671" x="143.166671" fill-opacity="null" stroke-opacity="null" stroke-width="0" stroke="#000" fill="#000000">_</text>
  <text xml:space="preserve" text-anchor="start" font-family="Arial, sans-serif" font-size="52" id="svg_9" y="47.816671" x="163.500005" stroke-width="0" fill="#008ce9">for planning</text>
 </g>
</svg>
